<svg width="0" height="0" class="hidden">
	<symbol fill="none" xmlns="http://www.w3.org/2000/svg" viewBox="0 0 20 20" id="icon-customer">
    <path d="M10 11.75C8.86276 11.75 7.75106 11.4128 6.80547 10.781C5.85989 10.1491 5.1229 9.25111 4.6877 8.20043C4.25249 7.14976 4.13862 5.99362 4.36049 4.87823C4.58235 3.76284 5.12999 2.73829 5.93414 1.93414C6.73829 1.12999 7.76284 0.582352 8.87823 0.360487C9.99362 0.138622 11.1498 0.252491 12.2004 0.687695C13.2511 1.1229 14.1491 1.85989 14.781 2.80547C15.4128 3.75106 15.75 4.86276 15.75 6C15.7474 7.52419 15.1407 8.98518 14.0629 10.0629C12.9852 11.1407 11.5242 11.7474 10 11.75ZM10 1.75C9.15943 1.75 8.33774 1.99926 7.63883 2.46626C6.93992 2.93325 6.39519 3.59701 6.07351 4.3736C5.75184 5.15018 5.66768 6.00472 5.83167 6.82914C5.99565 7.65356 6.40043 8.41083 6.9948 9.00521C7.58917 9.59958 8.34645 10.0044 9.17087 10.1683C9.99529 10.3323 10.8498 10.2482 11.6264 9.92649C12.403 9.60482 13.0668 9.06009 13.5337 8.36118C14.0007 7.66227 14.25 6.84057 14.25 6C14.2474 4.87364 13.7987 3.79417 13.0023 2.99772C12.2058 2.20126 11.1264 1.75264 10 1.75Z" fill="#456BD9"></path>
    <path d="M19 19.75C18.8019 19.7474 18.6126 19.6676 18.4725 19.5275C18.3324 19.3874 18.2526 19.1981 18.25 19C18.2474 17.078 17.4827 15.2355 16.1236 13.8764C14.7645 12.5173 12.922 11.7526 11 11.75H9C7.07799 11.7526 5.23546 12.5173 3.8764 13.8764C2.51733 15.2355 1.75265 17.078 1.75 19C1.75 19.1989 1.67098 19.3897 1.53033 19.5303C1.38968 19.671 1.19891 19.75 1 19.75C0.801088 19.75 0.610322 19.671 0.46967 19.5303C0.329018 19.3897 0.25 19.1989 0.25 19C0.252647 16.6802 1.17537 14.4561 2.81574 12.8157C4.45611 11.1754 6.68017 10.2526 9 10.25H11C13.3198 10.2526 15.5439 11.1754 17.1843 12.8157C18.8246 14.4561 19.7474 16.6802 19.75 19C19.7474 19.1981 19.6676 19.3874 19.5275 19.5275C19.3874 19.6676 19.1981 19.7474 19 19.75Z" fill="#456BD9"></path>
  </symbol>
  <symbol fill="none" xmlns="http://www.w3.org/2000/svg" viewBox="0 0 43 47" id="icon-finger-print">
    <path d="M35.4468 5.80826C35.2602 5.80826 35.0735 5.76159 34.9102 5.66826C30.4302 3.35826 26.5568 2.37826 21.9135 2.37826C17.2935 2.37826 12.9068 3.47492 8.91685 5.66826C8.35685 5.97159 7.65685 5.76159 7.33018 5.20159C7.02685 4.64159 7.23685 3.91826 7.79685 3.61492C12.1368 1.25826 16.8968 0.0449219 21.9135 0.0449219C26.8835 0.0449219 31.2235 1.14159 35.9835 3.59159C36.5668 3.89492 36.7768 4.59492 36.4735 5.15492C36.2635 5.57492 35.8668 5.80826 35.4468 5.80826ZM2.05685 18.0583C1.82352 18.0583 1.59018 17.9883 1.38018 17.8483C0.843516 17.4749 0.72685 16.7516 1.10018 16.2149C3.41018 12.9483 6.35018 10.3816 9.85018 8.58492C17.1768 4.80492 26.5568 4.78159 33.9068 8.56159C37.4068 10.3583 40.3468 12.9016 42.6568 16.1449C43.0302 16.6583 42.9135 17.4049 42.3769 17.7783C41.8402 18.1516 41.1168 18.0349 40.7435 17.4983C38.6435 14.5583 35.9835 12.2483 32.8335 10.6383C26.1369 7.20826 17.5735 7.20826 10.9002 10.6616C7.72685 12.2949 5.06685 14.6283 2.96685 17.5683C2.78018 17.8949 2.43018 18.0583 2.05685 18.0583ZM16.6402 46.2216C16.3369 46.2216 16.0335 46.1049 15.8235 45.8716C13.7935 43.8416 12.6968 42.5349 11.1335 39.7116C9.52352 36.8416 8.68352 33.3416 8.68352 29.5849C8.68352 22.6549 14.6102 17.0083 21.8902 17.0083C29.1702 17.0083 35.0968 22.6549 35.0968 29.5849C35.0968 30.2383 34.5835 30.7516 33.9302 30.7516C33.2768 30.7516 32.7635 30.2383 32.7635 29.5849C32.7635 23.9383 27.8868 19.3416 21.8902 19.3416C15.8935 19.3416 11.0169 23.9383 11.0169 29.5849C11.0169 32.9449 11.7635 36.0483 13.1869 38.5683C14.6802 41.2516 15.7068 42.3949 17.5035 44.2149C17.9468 44.6816 17.9468 45.4049 17.5035 45.8716C17.2468 46.1049 16.9435 46.2216 16.6402 46.2216ZM33.3702 41.9049C30.5935 41.9049 28.1435 41.2049 26.1368 39.8283C22.6602 37.4716 20.5835 33.6449 20.5835 29.5849C20.5835 28.9316 21.0968 28.4183 21.7502 28.4183C22.4035 28.4183 22.9168 28.9316 22.9168 29.5849C22.9168 32.8749 24.5968 35.9783 27.4435 37.8916C29.1002 39.0116 31.0368 39.5483 33.3702 39.5483C33.9302 39.5483 34.8635 39.4783 35.7968 39.3149C36.4268 39.1983 37.0335 39.6183 37.1502 40.2716C37.2668 40.9016 36.8468 41.5083 36.1935 41.6249C34.8635 41.8816 33.6968 41.9049 33.3702 41.9049ZM28.6802 46.7116C28.5868 46.7116 28.4702 46.6883 28.3768 46.6649C24.6668 45.6383 22.2402 44.2616 19.6968 41.7649C16.4302 38.5216 14.6335 34.2049 14.6335 29.5849C14.6335 25.8049 17.8535 22.7249 21.8202 22.7249C25.7868 22.7249 29.0068 25.8049 29.0068 29.5849C29.0068 32.0816 31.1768 34.1116 33.8602 34.1116C36.5435 34.1116 38.7135 32.0816 38.7135 29.5849C38.7135 20.7883 31.1302 13.6483 21.7968 13.6483C15.1702 13.6483 9.10352 17.3349 6.37352 23.0516C5.46352 24.9416 4.99685 27.1583 4.99685 29.5849C4.99685 31.4049 5.16018 34.2749 6.56018 38.0083C6.79352 38.6149 6.49018 39.2916 5.88352 39.5016C5.27685 39.7349 4.60018 39.4083 4.39018 38.8249C3.24685 35.7683 2.68685 32.7349 2.68685 29.5849C2.68685 26.7849 3.22352 24.2416 4.27352 22.0249C7.37685 15.5149 14.2602 11.2916 21.7968 11.2916C32.4135 11.2916 41.0468 19.4816 41.0468 29.5616C41.0468 33.3416 37.8268 36.4216 33.8602 36.4216C29.8935 36.4216 26.6735 33.3416 26.6735 29.5616C26.6735 27.0649 24.5035 25.0349 21.8202 25.0349C19.1368 25.0349 16.9669 27.0649 16.9669 29.5616C16.9669 33.5516 18.5068 37.2849 21.3302 40.0849C23.5468 42.2783 25.6702 43.4916 28.9602 44.4016C29.5902 44.5649 29.9402 45.2183 29.7768 45.8249C29.6602 46.3616 29.1702 46.7116 28.6802 46.7116Z" fill="#7D7D7D"></path>
  </symbol>
  <symbol fill="none" xmlns="http://www.w3.org/2000/svg" viewBox="0 0 15 18" id="icon-ribbon">
    <path d="M1.50803 17.0069C1.41379 17.0301 1.31531 17.0301 1.22107 17.0069C1.11613 16.9546 1.02803 16.8739 0.966831 16.7739C0.905636 16.6739 0.873823 16.5586 0.875033 16.4414V3.1569C0.883904 2.35168 1.20944 1.58233 1.78122 1.01529C2.353 0.448248 3.12503 0.129123 3.9303 0.126953H11.6276C12.4372 0.12918 13.213 0.451789 13.7855 1.02428C14.358 1.59677 14.6806 2.3726 14.6828 3.18222V16.3992C14.6813 16.5162 14.6479 16.6306 14.5861 16.73C14.5242 16.8293 14.4364 16.9099 14.3321 16.9629C14.2278 17.0159 14.111 17.0394 13.9943 17.0308C13.8776 17.0222 13.7654 16.9818 13.67 16.9141L7.76205 12.559L1.87095 16.9141C1.76115 16.9786 1.63534 17.0108 1.50803 17.0069ZM3.9303 1.36763C3.45576 1.36763 3.00065 1.55614 2.6651 1.8917C2.32954 2.22725 2.14103 2.68236 2.14103 3.1569V15.1501L7.40757 11.2593C7.51583 11.1778 7.64765 11.1337 7.78315 11.1337C7.91865 11.1337 8.05047 11.1778 8.15873 11.2593L13.4168 15.1501V3.1569C13.4146 2.68304 13.2254 2.22922 12.8903 1.89415C12.5552 1.55907 12.1014 1.36985 11.6276 1.36763H3.9303Z" fill="black"></path>
  </symbol>
  <symbol fill="none" xmlns="http://www.w3.org/2000/svg" viewBox="0 0 15 18" id="icon-ribbon-filled">
    <path d="M1.17991 17.0069C1.08566 17.0301 0.987188 17.0301 0.892947 17.0069C0.788007 16.9546 0.699901 16.8739 0.638706 16.7739C0.577511 16.6739 0.545698 16.5586 0.546908 16.4414V3.1569C0.555779 2.35168 0.881318 1.58233 1.45309 1.01529C2.02487 0.448248 2.79691 0.129123 3.60218 0.126953H11.2994C12.1091 0.12918 12.8849 0.451789 13.4574 1.02428C14.0299 1.59677 14.3525 2.3726 14.3547 3.18222V16.3992C14.3532 16.5162 14.3198 16.6306 14.2579 16.73C14.1961 16.8293 14.1083 16.9099 14.004 16.9629C13.8997 17.0159 13.7828 17.0394 13.6661 17.0308C13.5494 17.0222 13.4373 16.9818 13.3419 16.9141L7.43392 12.559L1.54282 16.9141C1.43303 16.9786 1.30721 17.0108 1.17991 17.0069Z" fill="#456BD9"></path>
  </symbol>
  <symbol fill="none" xmlns="http://www.w3.org/2000/svg" viewBox="0 0 17 16" id="icon-search">
    <path d="M16.2339 14.7638L12.32 10.8498C13.3866 9.54534 13.911 7.88082 13.7847 6.20054C13.6585 4.52026 12.8912 2.95278 11.6417 1.82233C10.3921 0.691875 8.7559 0.0849366 7.07141 0.127054C5.38693 0.169172 3.78306 0.857122 2.59158 2.04861C1.40009 3.24009 0.71214 4.84396 0.670023 6.52845C0.627905 8.21294 1.23484 9.84917 2.3653 11.0987C3.49575 12.3483 5.06323 13.1155 6.74351 13.2418C8.42379 13.368 10.0883 12.8436 11.3928 11.777L15.3067 15.6909C15.4304 15.8104 15.596 15.8765 15.768 15.875C15.9399 15.8735 16.1043 15.8045 16.2259 15.6829C16.3475 15.5614 16.4165 15.3969 16.4179 15.225C16.4194 15.0531 16.3533 14.8874 16.2339 14.7638ZM7.24607 11.9488C6.20857 11.9488 5.19437 11.6411 4.33172 11.0647C3.46907 10.4883 2.79672 9.66906 2.39968 8.71054C2.00265 7.75201 1.89877 6.69728 2.10117 5.67972C2.30358 4.66215 2.80318 3.72746 3.53681 2.99384C4.27043 2.26021 5.20512 1.76061 6.22269 1.55821C7.24025 1.3558 8.29498 1.45968 9.25351 1.85671C10.212 2.25375 11.0313 2.9261 11.6077 3.78875C12.1841 4.6514 12.4918 5.6656 12.4918 6.7031C12.4902 8.09386 11.937 9.42722 10.9536 10.4106C9.97019 11.3941 8.63683 11.9472 7.24607 11.9488Z" fill="#7D7D7D"></path>
  </symbol>
  <symbol fill="none" xmlns="http://www.w3.org/2000/svg" viewBox="0 0 103 8" id="lucid-logo">
    <path fill-rule="evenodd" clip-rule="evenodd" d="M18.3104 6.16781H4.05498C2.77872 6.16781 2.21123 5.47524 2.21123 3.98806V0.669097H0V3.98806C0 6.13622 1.54353 7.31938 3.01662 7.31938H18.3104V6.16781ZM41.3202 0.669097V6.16781H28.2882C27.012 6.16781 26.4445 5.47524 26.4445 3.98806V0.669097H24.2325V3.98806C24.2325 6.13622 25.7761 7.31938 27.2499 7.31938H43.5321V0.669097H41.3202ZM68.564 6.16781H53.5357C52.2595 6.16781 51.692 5.47524 51.692 3.98806C51.692 2.48934 52.2595 1.82067 53.5357 1.82067H68.564V0.669097H52.4974C51.0239 0.669097 49.48 1.84758 49.48 3.98806C49.48 6.13622 51.0236 7.31938 52.4974 7.31938H68.564V6.16781ZM99.6497 0.669097C101.122 0.669097 102.667 1.84758 102.667 3.98806C102.667 6.13622 101.123 7.31938 99.6497 7.31938H83.1487V0.669097H99.6497ZM100.455 3.98806C100.455 2.48934 99.8876 1.82067 98.6113 1.82067H85.3603V6.16736H98.6113C99.8876 6.16736 100.455 5.47524 100.455 3.98806ZM74.7782 7.5H76.9313V0.5H74.7782V7.5Z" fill="black"></path>
  </symbol>
  <symbol fill="none" xmlns="http://www.w3.org/2000/svg" viewBox="0 0 43 8" id="studio">
    <path d="M2.70797 7.57C2.2413 7.57 1.8213 7.49 1.44797 7.33C1.07464 7.16333 0.781302 6.93 0.567969 6.63C0.354635 6.33 0.247969 5.98 0.247969 5.58H1.46797C1.49464 5.88 1.6113 6.12667 1.81797 6.32C2.0313 6.51333 2.32797 6.61 2.70797 6.61C3.1013 6.61 3.40797 6.51667 3.62797 6.33C3.84797 6.13667 3.95797 5.89 3.95797 5.59C3.95797 5.35667 3.88797 5.16667 3.74797 5.02C3.61464 4.87333 3.44464 4.76 3.23797 4.68C3.03797 4.6 2.75797 4.51333 2.39797 4.42C1.94464 4.3 1.57464 4.18 1.28797 4.06C1.00797 3.93333 0.767969 3.74 0.567969 3.48C0.367969 3.22 0.267969 2.87333 0.267969 2.44C0.267969 2.04 0.367969 1.69 0.567969 1.39C0.767969 1.09 1.04797 0.86 1.40797 0.7C1.76797 0.54 2.18464 0.459999 2.65797 0.459999C3.3313 0.459999 3.8813 0.629999 4.30797 0.969999C4.7413 1.30333 4.9813 1.76333 5.02797 2.35H3.76797C3.74797 2.09667 3.62797 1.88 3.40797 1.7C3.18797 1.52 2.89797 1.43 2.53797 1.43C2.2113 1.43 1.94464 1.51333 1.73797 1.68C1.5313 1.84667 1.42797 2.08667 1.42797 2.4C1.42797 2.61333 1.4913 2.79 1.61797 2.93C1.7513 3.06333 1.91797 3.17 2.11797 3.25C2.31797 3.33 2.5913 3.41667 2.93797 3.51C3.39797 3.63667 3.7713 3.76333 4.05797 3.89C4.3513 4.01667 4.59797 4.21333 4.79797 4.48C5.00464 4.74 5.10797 5.09 5.10797 5.53C5.10797 5.88333 5.0113 6.21667 4.81797 6.53C4.6313 6.84333 4.35464 7.09667 3.98797 7.29C3.62797 7.47667 3.2013 7.57 2.70797 7.57ZM12.3431 0.549999V1.48H10.4931V7.5H9.35313V1.48H7.49313V0.549999H12.3431ZM16.0277 0.549999V4.98C16.0277 5.50667 16.1643 5.90333 16.4377 6.17C16.7177 6.43667 17.1043 6.57 17.5977 6.57C18.0977 6.57 18.4843 6.43667 18.7577 6.17C19.0377 5.90333 19.1777 5.50667 19.1777 4.98V0.549999H20.3177V4.96C20.3177 5.52667 20.1943 6.00667 19.9477 6.4C19.701 6.79333 19.371 7.08667 18.9577 7.28C18.5443 7.47333 18.0877 7.57 17.5877 7.57C17.0877 7.57 16.631 7.47333 16.2177 7.28C15.811 7.08667 15.4877 6.79333 15.2477 6.4C15.0077 6.00667 14.8877 5.52667 14.8877 4.96V0.549999H16.0277ZM25.472 0.549999C26.212 0.549999 26.8586 0.693333 27.412 0.98C27.972 1.26 28.402 1.66667 28.702 2.2C29.0086 2.72667 29.162 3.34333 29.162 4.05C29.162 4.75667 29.0086 5.37 28.702 5.89C28.402 6.41 27.972 6.81 27.412 7.09C26.8586 7.36333 26.212 7.5 25.472 7.5H23.202V0.549999H25.472ZM25.472 6.57C26.2853 6.57 26.9086 6.35 27.342 5.91C27.7753 5.47 27.992 4.85 27.992 4.05C27.992 3.24333 27.7753 2.61333 27.342 2.16C26.9086 1.70667 26.2853 1.48 25.472 1.48H24.342V6.57H25.472ZM32.8318 0.549999V7.5H31.6918V0.549999H32.8318ZM38.8985 7.57C38.2518 7.57 37.6552 7.42 37.1085 7.12C36.5685 6.81333 36.1385 6.39 35.8185 5.85C35.5052 5.30333 35.3485 4.69 35.3485 4.01C35.3485 3.33 35.5052 2.72 35.8185 2.18C36.1385 1.64 36.5685 1.22 37.1085 0.919999C37.6552 0.613333 38.2518 0.459999 38.8985 0.459999C39.5518 0.459999 40.1485 0.613333 40.6885 0.919999C41.2352 1.22 41.6652 1.64 41.9785 2.18C42.2918 2.72 42.4485 3.33 42.4485 4.01C42.4485 4.69 42.2918 5.30333 41.9785 5.85C41.6652 6.39 41.2352 6.81333 40.6885 7.12C40.1485 7.42 39.5518 7.57 38.8985 7.57ZM38.8985 6.58C39.3585 6.58 39.7685 6.47667 40.1285 6.27C40.4885 6.05667 40.7685 5.75667 40.9685 5.37C41.1752 4.97667 41.2785 4.52333 41.2785 4.01C41.2785 3.49667 41.1752 3.04667 40.9685 2.66C40.7685 2.27333 40.4885 1.97667 40.1285 1.77C39.7685 1.56333 39.3585 1.46 38.8985 1.46C38.4385 1.46 38.0285 1.56333 37.6685 1.77C37.3085 1.97667 37.0252 2.27333 36.8185 2.66C36.6185 3.04667 36.5185 3.49667 36.5185 4.01C36.5185 4.52333 36.6185 4.97667 36.8185 5.37C37.0252 5.75667 37.3085 6.05667 37.6685 6.27C38.0285 6.47667 38.4385 6.58 38.8985 6.58Z" fill="black"></path>
  </symbol>
  <symbol fill="none" xmlns="http://www.w3.org/2000/svg" viewBox="0 0 40 40" id="icon-all">
    <rect x="5.08203" y="9.78473" width="29.8414" height="22.605" rx="5.28091" fill="black"></rect>
    <path d="M9.22656 15.0083C9.22656 14.225 9.86156 13.59 10.6449 13.59H29.0287C29.812 13.59 30.447 14.225 30.447 15.0083H9.22656Z" fill="white"></path>
    <path d="M9.22656 17.7332C9.22656 16.9499 9.86156 16.3149 10.6449 16.3149H29.0287C29.812 16.3149 30.447 16.9499 30.447 17.7332H9.22656Z" fill="white"></path>
    <path d="M9.22656 20.2187C9.22656 19.4353 9.86156 18.8004 10.6449 18.8004H29.0287C29.812 18.8004 30.447 19.4353 30.447 20.2187H9.22656Z" fill="white"></path>
    <path fill-rule="evenodd" clip-rule="evenodd" d="M16.6058 19.3422C16.5735 19.5222 16.5566 19.7076 16.5566 19.897C16.5566 21.6219 17.955 23.0202 19.6799 23.0202C21.4048 23.0202 22.8031 21.6219 22.8031 19.897C22.8031 19.7076 22.7862 19.5222 22.754 19.3422H16.6058Z" fill="white"></path>
  </symbol>
  <symbol fill="none" xmlns="http://www.w3.org/2000/svg" viewBox="0 0 41 40" id="icon-apparel">
    <rect x="10.2363" y="28.2831" width="21.4365" height="3.89755" fill="black"></rect>
    <path d="M26.4937 3.92292L22.2052 8.37095C21.8797 8.68766 21.4472 8.86433 20.9974 8.86433C20.5477 8.86433 20.1152 8.68766 19.7897 8.37095L15.4487 3.92292C13.8666 3.9113 12.298 4.22121 10.8345 4.8346C9.37095 5.44799 8.0417 6.35259 6.92424 7.49564L1.95312 12.7475L7.83446 18.8747L10.4951 16.1238V36.0774H31.4998V16.1595L34.1429 18.9105L39.9542 12.7475L34.9306 7.53137C33.8281 6.39017 32.5148 5.4836 31.0665 4.86419C29.6183 4.24478 28.064 3.92484 26.4937 3.92292Z" stroke="black" stroke-linecap="round" stroke-linejoin="round"></path>
  </symbol>
  <symbol fill="none" xmlns="http://www.w3.org/2000/svg" viewBox="0 0 41 40" id="icon-bottle">
    <rect x="12.3633" y="5.04834" width="17.1784" height="32.63" rx="1.5" stroke="black"></rect>
    <path d="M13.6816 2.82159C13.6816 2.26931 14.1294 1.82159 14.6816 1.82159H27.2244C27.7766 1.82159 28.2244 2.26931 28.2244 2.82159V4.54835H13.6816V2.82159Z" fill="black"></path>
    <path fill-rule="evenodd" clip-rule="evenodd" d="M25.8875 29.419L25.8875 32.7003C25.8875 32.9941 25.6177 33.1247 25.0384 33.1247L23.7456 33.1247L23.7456 33.6337L25.0384 33.6337C25.8752 33.6337 26.3361 33.2784 26.3361 32.9394L26.3361 29.419L25.8875 29.419ZM23.7456 24.1226L25.8875 24.1226L25.8875 27.1223C25.8875 27.4161 25.6177 27.5467 25.0384 27.5467L23.7456 27.5467L23.7456 28.0559L25.0384 28.0559C25.8752 28.0559 26.3361 27.7006 26.3361 27.3613L26.3361 23.6135L23.7456 23.6135L23.7456 24.1226ZM25.8875 17.8516L25.8875 21.3108C25.8875 21.6046 25.6177 21.7352 25.0384 21.7352C24.4546 21.7352 24.1941 21.6046 24.1941 21.3108L24.1941 17.8516L23.7456 17.8516L23.7456 21.5498C23.7456 21.889 24.2046 22.2444 25.0384 22.2444C25.8752 22.2444 26.3361 21.8891 26.3361 21.5498L26.3361 17.8516L25.8875 17.8516ZM23.7456 10.6963C23.7456 10.3573 24.2046 10.0018 25.0384 10.0018C25.8752 10.0018 26.3361 10.3572 26.3361 10.6963L26.3361 14.4945L23.7456 14.4945L23.7456 10.6963ZM25.0384 10.5109C24.4546 10.5109 24.1941 10.6415 24.1941 10.9353L24.1941 13.9854L25.8873 13.9854L25.8873 10.9353C25.8873 10.6415 25.6177 10.5109 25.0384 10.5109ZM26.4064 16.4212L26.4064 15.9256L23.6797 15.9256L23.6797 16.4212L26.4064 16.4212Z" fill="black"></path>
  </symbol>
  <symbol fill="none" xmlns="http://www.w3.org/2000/svg" viewBox="0 0 41 40" id="icon-cap">
    <path d="M33.1282 27.0263C34.1744 26.7718 35.2488 26.6022 36.3232 26.4891L37.1998 26.4042L37.5391 26.5456H37.5673L37.737 26.6587C38.1328 26.8566 38.4156 27.1111 38.5287 27.3656C38.6983 27.7049 38.6701 28.0442 38.4156 28.4683L38.3873 28.5248C38.048 28.949 37.4825 29.1752 36.8887 29.1752C36.606 29.1752 36.3232 29.1186 36.0405 29.0055L32.082 27.2525L33.1282 27.0263Z" fill="black"></path>
    <path d="M13.0241 25.725C16.5585 26.0643 20.1494 25.6967 23.4575 24.6505L29.1408 22.8409L36.4922 26.1208L35.2198 26.2905C32.1944 26.7146 29.3104 27.7325 26.8788 29.2876L25.8326 29.9662C24.6168 30.7579 23.1465 31.1255 21.6762 31.1255C20.0363 31.1255 18.4246 30.6448 17.124 29.6834L11.6387 25.5836L13.0241 25.725Z" fill="black"></path>
    <path d="M7.03203 11.9C9.43539 9.94901 12.6587 8.87457 16.08 8.87457C19.5012 8.87457 22.7811 9.94901 25.1844 11.9C27.5878 13.8509 28.9167 17.9791 28.9167 20.75V22.5596L23.2618 24.3692C20.8019 25.1609 18.2006 25.5567 15.5993 25.5567C13.309 25.5567 10.9905 25.2457 8.78507 24.6236L3.27148 23.0968V20.7783C3.29976 17.9791 4.62867 13.8509 7.03203 11.9Z" fill="black"></path>
  </symbol>
</svg>